<?xml version="1.0" standalone="no"?>
<!DOCTYPE svg PUBLIC "-//W3C//DTD SVG 20010904//EN"
 "http://www.w3.org/TR/2001/REC-SVG-20010904/DTD/svg10.dtd">
<svg version="1.0" xmlns="http://www.w3.org/2000/svg"
 width="260.000000pt" height="260.000000pt" viewBox="0 0 260.000000 260.000000"
 preserveAspectRatio="xMidYMid meet">
<metadata>
Created by potrace 1.11, written by Peter Selinger 2001-2013
</metadata>
<g transform="translate(0.000000,260.000000) scale(0.100000,-0.100000)"
fill="#000000" stroke="none">
<path d="M875 2563 c4 -21 13 -58 20 -83 17 -58 50 -192 50 -205 0 -5 -8 -9
-18 -7 -31 5 -104 -36 -116 -66 -18 -46 -19 -76 -4 -112 18 -46 55 -72 109
-78 39 -4 44 -7 45 -31 1 -27 -2 -85 -4 -88 -1 -1 -22 -4 -47 -7 -192 -26
-341 -142 -416 -321 l-29 -70 -3 -722 -3 -721 26 -26 26 -26 788 0 788 0 27
25 26 24 0 705 c0 610 -3 711 -16 758 -60 205 -224 345 -436 374 -24 4 -44 7
-45 8 -2 2 -5 60 -4 87 1 24 6 27 45 31 54 6 91 32 109 78 33 79 -17 164 -102
174 -17 2 -34 5 -36 7 -2 2 14 72 36 154 21 83 39 156 39 163 0 9 -93 12 -430
12 l-431 0 6 -37z m354 -53 c0 -3 -4 -14 -9 -25 -5 -13 -3 -26 8 -37 32 -37
79 -10 69 40 l-6 27 114 0 113 0 -5 -27 c-10 -53 41 -79 71 -36 11 15 12 26 6
39 -14 25 -13 28 10 22 15 -4 19 -11 14 -27 -11 -39 -15 -54 -19 -73 -20 -85
-34 -135 -40 -141 -3 -4 -75 -7 -159 -7 l-152 0 10 27 c12 33 -5 58 -40 58
-27 0 -49 -33 -39 -58 3 -9 5 -19 3 -21 -2 -3 -32 -5 -67 -5 -55 -1 -65 2 -72
19 -7 17 -59 216 -59 227 0 2 56 3 125 3 69 0 125 -2 124 -5z m469 -338 c18
-12 23 -49 7 -62 -11 -9 -442 -15 -772 -10 -40 0 -60 29 -41 60 13 20 22 20
403 20 214 0 396 -4 403 -8z m-148 -267 l0 -105 75 0 c41 0 77 0 80 0 16 -1
126 -47 155 -66 78 -50 151 -148 178 -240 9 -30 12 -223 12 -725 l0 -684 -737
1 c-406 1 -744 2 -751 3 -10 1 -12 140 -10 704 l3 702 29 60 c76 154 221 245
392 246 l74 0 0 105 0 104 250 0 250 0 0 -105z"/>
<path d="M1065 2466 c-21 -15 -17 -55 8 -70 25 -16 52 4 52 39 0 33 -33 51
-60 31z"/>
<path d="M1390 2371 c-15 -29 -13 -39 15 -57 24 -16 27 -16 45 1 23 20 26 45
8 63 -18 18 -56 14 -68 -7z"/>
<path d="M628 398 c-2 -13 -2 -32 0 -43 3 -20 9 -21 525 -20 l522 0 3 43 3 42
-525 0 -525 0 -3 -22z"/>
<path d="M1802 378 l3 -43 82 -1 81 0 4 38 c2 22 2 41 -1 44 -2 2 -42 4 -88 4
l-84 0 3 -42z"/>
<path d="M632 216 l3 -49 661 0 c364 0 666 3 672 7 6 3 9 14 7 24 -2 9 -4 28
-4 42 l-1 25 -670 0 -671 0 3 -49z"/>
</g>
</svg>
