<?xml version="1.0" encoding="utf-8"?>
<!-- Generator: Adobe Illustrator 20.0.0, SVG Export Plug-In . SVG Version: 6.00 Build 0)  -->
<svg version="1.1" id="Layer_1" xmlns="http://www.w3.org/2000/svg" xmlns:xlink="http://www.w3.org/1999/xlink" x="0px" y="0px"
	 viewBox="0 0 64 64" style="enable-background:new 0 0 64 64;" xml:space="preserve">
<style type="text/css">
	.st0{fill:#333333;}
	.st1{fill:#F9BA48;}
	.st2{fill:#FFFFFF;}
</style>
<g>
	<g>
		<path class="st0" d="M50,64H14c-1.1,0-2-0.9-2-2V46c0-6.6,8.4-12,15-12v-5h10v5c6.6,0,15,5.4,15,12v16C52,63.1,51.1,64,50,64z
			 M27,36c-5.5,0-13,4.5-13,10v16h36V46c0-5.5-7.5-10-13-10h-2v-5h-6v5H27z"/>
	</g>
	<g>
		<rect x="16" y="49" class="st0" width="25" height="2"/>
	</g>
	<g>
		<rect x="44" y="49" class="st0" width="4" height="2"/>
	</g>
	<g>
		<rect x="16" y="53.1" class="st1" width="32" height="6.9"/>
	</g>
	<g>
		<g>
			<path class="st0" d="M14,0.8h36c1.1,0,2,0.9,2,2v16c0,6.6-8.4,12-15,12v5H27v-5c-6.6,0-15-5.4-15-12v-16C12,1.7,12.9,0.8,14,0.8z
				 M37,28.8c5.5,0,13-4.5,13-10v-16H14v16c0,5.5,7.5,10,13,10h2v5h6v-5H37z"/>
		</g>
		<g>
			<rect x="23" y="12.5" class="st0" width="25" height="2"/>
		</g>
		<g>
			<rect x="16" y="12.5" class="st0" width="4" height="2"/>
		</g>
	</g>
</g>
<g>
	<g id="XMLID_1_">
		<g>
			<path class="st1" d="M47.9,16.5v0.7c0,4.9-6.6,8.8-11.5,8.8h-1.8h-5.3h-1.8c-4.9,0-11.5-4-11.5-8.8v-0.7H47.9z"/>
		</g>
		<g>
		</g>
	</g>
</g>
<rect x="29" y="27.5" class="st2" width="6" height="10.9"/>
<rect x="29.8" y="43.2" transform="matrix(0.9427 -0.3337 0.3337 0.9427 -13.0246 12.8522)" class="st1" width="2.3" height="2.3"/>
<rect x="31.8" y="37.2" transform="matrix(0.9136 0.4066 -0.4066 0.9136 18.4293 -10.0629)" class="st1" width="2.3" height="2.3"/>
<rect x="30.8" y="30.2" transform="matrix(0.82 -0.5724 0.5724 0.82 -12.1934 23.8948)" class="st1" width="2.3" height="2.3"/>
</svg>
