<svg height="64" viewBox="0 0 64 64" width="64" xmlns="http://www.w3.org/2000/svg"><path d="M56 63c-1.654 0-3-1.346-3-3V49h2v11a1 1 0 0 0 2 0V43h2v17c0 1.654-1.346 3-3 3zM50 46H4c-1.654 0-3-1.346-3-3V9c0-1.654 1.346-3 3-3h5v2H4c-.551 0-1 .449-1 1v34c0 .552.449 1 1 1h46v2zM55 22h-2V9c0-.551-.448-1-1-1h-5V6h5c1.654 0 3 1.346 3 3v13zM14 6h28v2H14z" fill="#333"/><path fill="#333" d="M2 12h52v2H2zM11.5 11C9.57 11 8 9.43 8 7.5v-3C8 2.57 9.57 1 11.5 1S15 2.57 15 4.5v3c0 1.93-1.57 3.5-3.5 3.5zm0-8c-.827 0-1.5.673-1.5 1.5v3c0 .827.673 1.5 1.5 1.5S13 8.327 13 7.5v-3c0-.827-.673-1.5-1.5-1.5zM44.5 11C42.57 11 41 9.43 41 7.5v-3C41 2.57 42.57 1 44.5 1S48 2.57 48 4.5v3c0 1.93-1.57 3.5-3.5 3.5zm0-8c-.827 0-1.5.673-1.5 1.5v3c0 .827.673 1.5 1.5 1.5S46 8.327 46 7.5v-3c0-.827-.673-1.5-1.5-1.5zM54 31c-2.757 0-5-2.243-5-5s2.243-5 5-5 5 2.243 5 5-2.243 5-5 5zm0-8c-1.654 0-3 1.346-3 3s1.346 3 3 3 3-1.346 3-3-1.346-3-3-3z"/><path d="M28 41c-6.617 0-12-5.383-12-12s5.383-12 12-12 12 5.383 12 12c0 .713-.07 1.454-.21 2.203l-.138.739-.749.072a.993.993 0 0 0-.614 1.687l.528.537-.371.656A12.027 12.027 0 0 1 28 41z" fill="#F9BA48"/><path d="M52 63c-1.654 0-3-1.346-3-3V36H39c-1.654 0-3-1.346-3-3s1.346-3 3-3h17.892A6.115 6.115 0 0 1 63 36.108V45c0 1.654-1.346 3-3 3s-3-1.346-3-3V35h2v10a1 1 0 0 0 2 0v-8.892A4.113 4.113 0 0 0 56.892 32H39a1.001 1.001 0 0 0 0 2h12v26a1 1 0 0 0 2 0V49h2v11c0 1.654-1.346 3-3 3zM23.892 36.522L20.2 31.6l1.6-1.2 2.308 3.078 15.185-15.185 1.414 1.414z" fill="#333"/></svg>