<svg id="Layer_1" xmlns="http://www.w3.org/2000/svg" viewBox="0 0 64 64"><style>.st0{fill:#333}.st1{fill:#f9ba48}.st2{fill:#fff}</style><path class="st0" d="M50 64H14c-1.1 0-2-.9-2-2V46c0-6.6 8.4-12 15-12v-5h10v5c6.6 0 15 5.4 15 12v16c0 1.1-.9 2-2 2zM27 36c-5.5 0-13 4.5-13 10v16h36V46c0-5.5-7.5-10-13-10h-2v-5h-6v5h-2z"/><path class="st0" d="M16 49h25v2H16zM44 49h4v2h-4z"/><path class="st1" d="M16 53.1h32V60H16z"/><path class="st0" d="M14 .8h36c1.1 0 2 .9 2 2v16c0 6.6-8.4 12-15 12v5H27v-5c-6.6 0-15-5.4-15-12v-16c0-1.1.9-2 2-2zm23 28c5.5 0 13-4.5 13-10v-16H14v16c0 5.5 7.5 10 13 10h2v5h6v-5h2z"/><path class="st0" d="M23 12.5h25v2H23zM16 12.5h4v2h-4z"/><g><g id="XMLID_1_"><path class="st1" d="M47.9 16.5v.7c0 4.9-6.6 8.8-11.5 8.8h-8.9C22.6 26 16 22 16 17.2v-.7h31.9z"/></g></g><path class="st2" d="M29 27.5h6v10.9h-6z"/><path transform="rotate(-19.49 30.901 44.337)" class="st1" d="M29.8 43.2h2.3v2.3h-2.3z"/><path transform="rotate(23.992 32.895 38.335)" class="st1" d="M31.8 37.2h2.3v2.3h-2.3z"/><path transform="rotate(-34.915 31.892 31.331)" class="st1" d="M30.8 30.2h2.3v2.3h-2.3z"/></svg>