<svg id="Layer_1" xmlns="http://www.w3.org/2000/svg" viewBox="0 0 64 64"><style>.st0{fill:#333}.st1{fill:#f9ba48}</style><path class="st0" d="M46 63H18c-2.8 0-5-2.2-5-5V45h38v13c0 2.8-2.2 5-5 5zM15 47v11c0 1.7 1.3 3 3 3h28c1.7 0 3-1.3 3-3V47H15z"/><path class="st0" d="M45 47H19V6.7C19 3.6 21.6 1 24.7 1h14.6C42.4 1 45 3.6 45 6.7V47zm-24-2h22V6.7c0-2-1.7-3.7-3.7-3.7H24.7c-2 0-3.7 1.7-3.7 3.7V45z"/><path class="st0" d="M27 5h10v2H27z"/><path class="st1" d="M23 10h18v8H23z"/><path class="st0" d="M32 30c-2.8 0-5-2.2-5-5s2.2-5 5-5 5 2.2 5 5-2.2 5-5 5zm0-8c-1.7 0-3 1.3-3 3s1.3 3 3 3 3-1.3 3-3-1.3-3-3-3zM23 33h3v2h-3zM28 33h3v2h-3zM33 33h3v2h-3zM38 33h3v2h-3zM23 37h3v2h-3zM28 37h3v2h-3zM33 37h3v2h-3zM38 37h3v2h-3zM23 41h3v2h-3zM28 41h3v2h-3zM33 41h3v2h-3zM38 41h3v2h-3zM23 29h3v2h-3zM38 29h3v2h-3zM19 50h26v2H19zM41 19H23v-9h2v7h16z"/></svg>