<?xml version="1.0" encoding="utf-8"?>
<!-- Generator: Adobe Illustrator 20.0.0, SVG Export Plug-In . SVG Version: 6.00 Build 0)  -->
<svg version="1.1" id="Layer_1" xmlns="http://www.w3.org/2000/svg" xmlns:xlink="http://www.w3.org/1999/xlink" x="0px" y="0px"
	 viewBox="0 0 64 64" style="enable-background:new 0 0 64 64;" xml:space="preserve">
<style type="text/css">
	.st0{fill:#333333;}
	.st1{fill:#F9BA48;}
</style>
<g>
	<g>
		<path class="st0" d="M46,63H18c-2.8,0-5-2.2-5-5V45h38v13C51,60.8,48.8,63,46,63z M15,47v11c0,1.7,1.3,3,3,3h28c1.7,0,3-1.3,3-3
			V47H15z"/>
	</g>
	<g>
		<path class="st0" d="M45,47H19V6.7C19,3.6,21.6,1,24.7,1h14.6C42.4,1,45,3.6,45,6.7V47z M21,45h22V6.7c0-2-1.7-3.7-3.7-3.7H24.7
			c-2,0-3.7,1.7-3.7,3.7V45z"/>
	</g>
	<g>
		<rect x="27" y="5" class="st0" width="10" height="2"/>
	</g>
	<g>
		<rect x="23" y="10" class="st1" width="18" height="8"/>
	</g>
	<g>
		<path class="st0" d="M32,30c-2.8,0-5-2.2-5-5s2.2-5,5-5s5,2.2,5,5S34.8,30,32,30z M32,22c-1.7,0-3,1.3-3,3s1.3,3,3,3s3-1.3,3-3
			S33.7,22,32,22z"/>
	</g>
	<g>
		<rect x="23" y="33" class="st0" width="3" height="2"/>
	</g>
	<g>
		<rect x="28" y="33" class="st0" width="3" height="2"/>
	</g>
	<g>
		<rect x="33" y="33" class="st0" width="3" height="2"/>
	</g>
	<g>
		<rect x="38" y="33" class="st0" width="3" height="2"/>
	</g>
	<g>
		<rect x="23" y="37" class="st0" width="3" height="2"/>
	</g>
	<g>
		<rect x="28" y="37" class="st0" width="3" height="2"/>
	</g>
	<g>
		<rect x="33" y="37" class="st0" width="3" height="2"/>
	</g>
	<g>
		<rect x="38" y="37" class="st0" width="3" height="2"/>
	</g>
	<g>
		<rect x="23" y="41" class="st0" width="3" height="2"/>
	</g>
	<g>
		<rect x="28" y="41" class="st0" width="3" height="2"/>
	</g>
	<g>
		<rect x="33" y="41" class="st0" width="3" height="2"/>
	</g>
	<g>
		<rect x="38" y="41" class="st0" width="3" height="2"/>
	</g>
	<g>
		<rect x="23" y="29" class="st0" width="3" height="2"/>
	</g>
	<g>
		<rect x="38" y="29" class="st0" width="3" height="2"/>
	</g>
	<g>
		<rect x="19" y="50" class="st0" width="26" height="2"/>
	</g>
	<g>
		<polygon class="st0" points="41,19 23,19 23,10 25,10 25,17 41,17 		"/>
	</g>
</g>
</svg>
