<?xml version="1.0" ?><svg enable-background="new 0 0 64 64" height="64px" id="Layer_1" version="1.1" viewBox="0 0 64 64" width="64px" xml:space="preserve" xmlns="http://www.w3.org/2000/svg" xmlns:xlink="http://www.w3.org/1999/xlink"><g><g><path d="M56,63c-1.654,0-3-1.346-3-3V49h2v11c0,0.552,0.448,1,1,1s1-0.448,1-1V43h2v17C59,61.654,57.654,63,56,63z    " fill="#333333"/></g><g><path d="M50,46H4c-1.654,0-3-1.346-3-3V9c0-1.654,1.346-3,3-3h5v2H4C3.449,8,3,8.449,3,9v34c0,0.552,0.449,1,1,1    h46V46z" fill="#333333"/></g><g><path d="M55,22h-2V9c0-0.551-0.448-1-1-1h-5V6h5c1.654,0,3,1.346,3,3V22z" fill="#333333"/></g><g><rect fill="#333333" height="2" width="28" x="14" y="6"/></g><g><rect fill="#333333" height="2" width="52" x="2" y="12"/></g><g><path d="M11.5,11C9.57,11,8,9.43,8,7.5v-3C8,2.57,9.57,1,11.5,1S15,2.57,15,4.5v3C15,9.43,13.43,11,11.5,11z     M11.5,3C10.673,3,10,3.673,10,4.5v3C10,8.327,10.673,9,11.5,9S13,8.327,13,7.5v-3C13,3.673,12.327,3,11.5,3z" fill="#333333"/></g><g><path d="M44.5,11C42.57,11,41,9.43,41,7.5v-3C41,2.57,42.57,1,44.5,1S48,2.57,48,4.5v3C48,9.43,46.43,11,44.5,11z     M44.5,3C43.673,3,43,3.673,43,4.5v3C43,8.327,43.673,9,44.5,9S46,8.327,46,7.5v-3C46,3.673,45.327,3,44.5,3z" fill="#333333"/></g><g><path d="M54,31c-2.757,0-5-2.243-5-5s2.243-5,5-5s5,2.243,5,5S56.757,31,54,31z M54,23c-1.654,0-3,1.346-3,3    s1.346,3,3,3s3-1.346,3-3S55.654,23,54,23z" fill="#333333"/></g><g><path d="M28,41c-6.617,0-12-5.383-12-12s5.383-12,12-12s12,5.383,12,12c0,0.713-0.07,1.454-0.21,2.203    l-0.138,0.739l-0.749,0.072C38.389,32.065,38,32.488,38,33c0,0.263,0.103,0.512,0.289,0.701l0.528,0.537l-0.371,0.656    C36.316,38.66,32.313,41,28,41z" fill="#F9BA48"/></g><g><path d="M52,63c-1.654,0-3-1.346-3-3V36H39c-1.654,0-3-1.346-3-3s1.346-3,3-3h17.892C60.26,30,63,32.74,63,36.108    V45c0,1.654-1.346,3-3,3s-3-1.346-3-3V35h2v10c0,0.552,0.448,1,1,1s1-0.448,1-1v-8.892C61,33.843,59.157,32,56.892,32H39    c-0.552,0-1,0.449-1,1c0,0.552,0.448,1,1,1h12v26c0,0.552,0.448,1,1,1s1-0.448,1-1V49h2v11C55,61.654,53.654,63,52,63z" fill="#333333"/></g><g><polygon fill="#333333" points="23.892,36.522 20.2,31.6 21.8,30.4 24.108,33.478 39.293,18.293 40.707,19.707   "/></g></g></svg>