<?xml version="1.0" encoding="utf-8"?>
<!-- Generator: Adobe Illustrator 20.0.0, SVG Export Plug-In . SVG Version: 6.00 Build 0)  -->
<svg version="1.1" id="Isolation_Mode" xmlns="http://www.w3.org/2000/svg" xmlns:xlink="http://www.w3.org/1999/xlink" x="0px"
	 y="0px" viewBox="0 0 64 64" style="enable-background:new 0 0 64 64;" xml:space="preserve">
<style type="text/css">
	.st0{fill:#333333;}
	.st1{fill:#F9BA48;}
</style>
<g>
	<g>
		<path class="st0" d="M41,15H23c-1.7,0-3-1.3-3-3s1.3-3,3-3h18c1.7,0,3,1.3,3,3S42.7,15,41,15z M23,11c-0.6,0-1,0.4-1,1s0.4,1,1,1
			h18c0.6,0,1-0.4,1-1s-0.4-1-1-1H23z"/>
	</g>
	<g>
		<path class="st0" d="M39.8,11H24.2L21.7,1h20.6L39.8,11z M25.8,9h12.4l1.5-6H24.3L25.8,9z"/>
	</g>
	<g>
		<circle class="st0" cx="27" cy="5" r="1"/>
	</g>
	<g>
		<circle class="st0" cx="35" cy="7" r="1"/>
	</g>
	<g>
		<circle class="st0" cx="31" cy="4" r="1"/>
	</g>
	<g>
		<circle class="st0" cx="38" cy="4" r="1"/>
	</g>
	<g>
		<circle class="st0" cx="30" cy="8" r="1"/>
	</g>
	<g>
		<path class="st0" d="M50,63H14c-1.1,0-2-0.9-2-2V30c0-6.6,5.4-12,12-12v-5h16v5c6.6,0,12,5.4,12,12v31C52,62.1,51.1,63,50,63z
			 M24,20c-5.5,0-10,4.5-10,10v31h36V30c0-5.5-4.5-10-10-10h-2v-5H26v5H24z"/>
	</g>
	<g>
		<rect x="16" y="53" class="st0" width="25" height="2"/>
	</g>
	<g>
		<rect x="44" y="53" class="st0" width="4" height="2"/>
	</g>
	<g>
		<rect x="16" y="56.7" class="st1" width="32" height="2.3"/>
	</g>
</g>
</svg>
