<svg id="Isolation_Mode" xmlns="http://www.w3.org/2000/svg" viewBox="0 0 64 64"><style>.st0{fill:#333}.st1{fill:#f9ba48}</style><path class="st0" d="M41 15H23c-1.7 0-3-1.3-3-3s1.3-3 3-3h18c1.7 0 3 1.3 3 3s-1.3 3-3 3zm-18-4c-.6 0-1 .4-1 1s.4 1 1 1h18c.6 0 1-.4 1-1s-.4-1-1-1H23z"/><path class="st0" d="M39.8 11H24.2L21.7 1h20.6l-2.5 10zm-14-2h12.4l1.5-6H24.3l1.5 6z"/><circle class="st0" cx="27" cy="5" r="1"/><circle class="st0" cx="35" cy="7" r="1"/><circle class="st0" cx="31" cy="4" r="1"/><circle class="st0" cx="38" cy="4" r="1"/><circle class="st0" cx="30" cy="8" r="1"/><path class="st0" d="M50 63H14c-1.1 0-2-.9-2-2V30c0-6.6 5.4-12 12-12v-5h16v5c6.6 0 12 5.4 12 12v31c0 1.1-.9 2-2 2zM24 20c-5.5 0-10 4.5-10 10v31h36V30c0-5.5-4.5-10-10-10h-2v-5H26v5h-2z"/><path class="st0" d="M16 53h25v2H16zM44 53h4v2h-4z"/><path class="st1" d="M16 56.7h32V59H16z"/></svg>