<svg version="1" xmlns="http://www.w3.org/2000/svg" width="346.667" height="346.667" viewBox="0 0 260.000000 260.000000"><path d="M87.5 3.7c.4 2.1 1.3 5.8 2 8.3 1.7 5.8 5 19.2 5 20.5 0 .5-.8.9-1.8.7-3.1-.5-10.4 3.6-11.6 6.6-1.8 4.6-1.9 7.6-.4 11.2 1.8 4.6 5.5 7.2 10.9 7.8 3.9.4 4.4.7 4.5 3.1.1 2.7-.2 8.5-.4 8.8-.1.1-2.2.4-4.7.7-19.2 2.6-34.1 14.2-41.6 32.1l-2.9 7-.3 72.2-.3 72.1 2.6 2.6 2.6 2.6h157.6l2.7-2.5 2.6-2.4v-70.5c0-61-.3-71.1-1.6-75.8-6-20.5-22.4-34.5-43.6-37.4-2.4-.4-4.4-.7-4.5-.8-.2-.2-.5-6-.4-8.7.1-2.4.6-2.7 4.5-3.1 5.4-.6 9.1-3.2 10.9-7.8 3.3-7.9-1.7-16.4-10.2-17.4-1.7-.2-3.4-.5-3.6-.7-.2-.2 1.4-7.2 3.6-15.4 2.1-8.3 3.9-15.6 3.9-16.3 0-.9-9.3-1.2-43-1.2H86.9l.6 3.7zM122.9 9c0 .3-.4 1.4-.9 2.5-.5 1.3-.3 2.6.8 3.7 3.2 3.7 7.9 1 6.9-4l-.6-2.7H151.8l-.5 2.7c-1 5.3 4.1 7.9 7.1 3.6 1.1-1.5 1.2-2.6.6-3.9-1.4-2.5-1.3-2.8 1-2.2 1.5.4 1.9 1.1 1.4 2.7-1.1 3.9-1.5 5.4-1.9 7.3-2 8.5-3.4 13.5-4 14.1-.3.4-7.5.7-15.9.7h-15.2l1-2.7c1.2-3.3-.5-5.8-4-5.8-2.7 0-4.9 3.3-3.9 5.8.3.9.5 1.9.3 2.1-.2.3-3.2.5-6.7.5-5.5.1-6.5-.2-7.2-1.9-.7-1.7-5.9-21.6-5.9-22.7 0-.2 5.6-.3 12.5-.3s12.5.2 12.4.5zm46.9 33.8c1.8 1.2 2.3 4.9.7 6.2-1.1.9-44.2 1.5-77.2 1-4 0-6-2.9-4.1-6 1.3-2 2.2-2 40.3-2 21.4 0 39.6.4 40.3.8zM155 69.5V80h15.5c1.6.1 12.6 4.7 15.5 6.6 7.8 5 15.1 14.8 17.8 24 .9 3 1.2 22.3 1.2 72.5v68.4l-73.7-.1c-40.6-.1-74.4-.2-75.1-.3-1-.1-1.2-14-1-70.4l.3-70.2 2.9-6C66 89.1 80.5 80 97.6 79.9h7.4V59h50v10.5z"/><path d="M106.5 13.4c-2.1 1.5-1.7 5.5.8 7 2.5 1.6 5.2-.4 5.2-3.9 0-3.3-3.3-5.1-6-3.1zM139 22.9c-1.5 2.9-1.3 3.9 1.5 5.7 2.4 1.6 2.7 1.6 4.5-.1 2.3-2 2.6-4.5.8-6.3-1.8-1.8-5.6-1.4-6.8.7zM62.8 220.2c-.2 1.3-.2 3.2 0 4.3.3 2 .9 2.1 52.5 2h52.2l.3-4.3.3-4.2h-105l-.3 2.2zM180.2 222.2l.3 4.3 8.2.1h8.1l.4-3.8c.2-2.2.2-4.1-.1-4.4-.2-.2-4.2-.4-8.8-.4h-8.4l.3 4.2zM63.2 238.4l.3 4.9h66.1c36.4 0 66.6-.3 67.2-.7.6-.3.9-1.4.7-2.4-.2-.9-.4-2.8-.4-4.2l-.1-2.5H62.9l.3 4.9z"/></svg>