<?xml version="1.0" encoding="utf-8"?>
<!-- Generator: Adobe Illustrator 20.0.0, SVG Export Plug-In . SVG Version: 6.00 Build 0)  -->
<svg version="1.1" id="Layer_1_1_" xmlns="http://www.w3.org/2000/svg" xmlns:xlink="http://www.w3.org/1999/xlink" x="0px" y="0px"
	 viewBox="0 0 64 64" style="enable-background:new 0 0 64 64;" xml:space="preserve">
<style type="text/css">
	.st0{fill:#F9BA48;}
	.st1{fill:#333333;}
</style>
<g>
	<g>
		<circle class="st0" cx="32" cy="32" r="16"/>
	</g>
	<g>
		<path class="st1" d="M32,54c-12.1,0-22-9.9-22-22s9.9-22,22-22s22,9.9,22,22S44.1,54,32,54z M32,12c-11,0-20,9-20,20s9,20,20,20
			s20-9,20-20S43,12,32,12z"/>
	</g>
	<g>
		<polygon class="st1" points="33,33 18,33 18,31 31,31 31,18 33,18 		"/>
	</g>
	<g>
		<circle class="st1" cx="32" cy="15" r="1"/>
	</g>
	<g>
		<circle class="st1" cx="32" cy="49" r="1"/>
	</g>
	<g>
		<circle class="st1" cx="49" cy="32" r="1"/>
	</g>
	<g>
		<circle class="st1" cx="15" cy="32" r="1"/>
	</g>
	<g>
		<polygon class="st1" points="7.6,50.1 1.8,49 2.2,47 6.4,47.9 8.1,43.6 9.9,44.4 		"/>
	</g>
	<g>
		<circle class="st1" cx="10" cy="52" r="1"/>
	</g>
	<g>
		<polygon class="st1" points="55.9,20.4 54.1,19.6 56.4,13.9 62.2,15 61.8,17 57.6,16.1 		"/>
	</g>
	<g>
		<path class="st1" d="M32,63c-7.1,0-14-2.4-19.5-6.9l1.3-1.6C18.9,58.7,25.4,61,32,61c16,0,29-13,29-29c0-5.8-1.7-11.4-4.9-16.2
			l1.7-1.1C61.2,19.8,63,25.8,63,32C63,49.1,49.1,63,32,63z"/>
	</g>
	<g>
		<path class="st1" d="M6.3,49.3C2.8,44.2,1,38.2,1,32C1,14.9,14.9,1,32,1c7.1,0,14,2.4,19.5,6.9l-1.3,1.6C45.1,5.3,38.6,3,32,3
			C16,3,3,16,3,32c0,5.8,1.7,11.4,4.9,16.2L6.3,49.3z"/>
	</g>
	<g>
		<circle class="st1" cx="54" cy="12" r="1"/>
	</g>
</g>
</svg>
