<svg id="Layer_1_1_" xmlns="http://www.w3.org/2000/svg" viewBox="0 0 64 64"><style>.st0{fill:#f9ba48}.st1{fill:#333}</style><circle class="st0" cx="32" cy="32" r="16"/><path class="st1" d="M32 54c-12.1 0-22-9.9-22-22s9.9-22 22-22 22 9.9 22 22-9.9 22-22 22zm0-42c-11 0-20 9-20 20s9 20 20 20 20-9 20-20-9-20-20-20z"/><path class="st1" d="M33 33H18v-2h13V18h2z"/><circle class="st1" cx="32" cy="15" r="1"/><circle class="st1" cx="32" cy="49" r="1"/><circle class="st1" cx="49" cy="32" r="1"/><circle class="st1" cx="15" cy="32" r="1"/><path class="st1" d="M7.6 50.1L1.8 49l.4-2 4.2.9 1.7-4.3 1.8.8z"/><circle class="st1" cx="10" cy="52" r="1"/><path class="st1" d="M55.9 20.4l-1.8-.8 2.3-5.7 5.8 1.1-.4 2-4.2-.9z"/><path class="st1" d="M32 63c-7.1 0-14-2.4-19.5-6.9l1.3-1.6C18.9 58.7 25.4 61 32 61c16 0 29-13 29-29 0-5.8-1.7-11.4-4.9-16.2l1.7-1.1C61.2 19.8 63 25.8 63 32c0 17.1-13.9 31-31 31zM6.3 49.3C2.8 44.2 1 38.2 1 32 1 14.9 14.9 1 32 1c7.1 0 14 2.4 19.5 6.9l-1.3 1.6C45.1 5.3 38.6 3 32 3 16 3 3 16 3 32c0 5.8 1.7 11.4 4.9 16.2l-1.6 1.1z"/><circle class="st1" cx="54" cy="12" r="1"/></svg>